<svg width="25" height="20" viewBox="0 0 25 20" fill="none" xmlns="http://www.w3.org/2000/svg">
<path d="M24.2556 3.0105C23.3581 3.40047 22.4086 3.65738 21.4369 3.77313C22.458 3.17518 23.226 2.22523 23.5967 1.10145C22.6312 1.66598 21.5767 2.06209 20.4784 2.2728C20.0159 1.78807 19.4596 1.40246 18.8434 1.1394C18.2272 0.876339 17.564 0.741324 16.894 0.742562C14.1815 0.742562 11.9863 2.90583 11.9863 5.57253C11.9844 5.94346 12.0269 6.31328 12.1129 6.6741C10.1678 6.58292 8.26315 6.08672 6.5208 5.21726C4.77845 4.34781 3.23677 3.12423 1.9944 1.62482C1.55854 2.35959 1.32804 3.19794 1.32698 4.05226C1.32698 5.72705 2.20076 7.20744 3.52015 8.07474C2.73845 8.05619 1.97276 7.84929 1.2881 7.47162V7.53143C1.2881 9.87414 2.98282 11.8231 5.22584 12.2667C4.80405 12.3791 4.36939 12.4361 3.93287 12.4362C3.62312 12.4367 3.31408 12.4067 3.01024 12.3464C3.6338 14.2655 5.44865 15.6611 7.59846 15.701C5.85158 17.0473 3.70688 17.7749 1.50143 17.7696C1.10996 17.769 0.718851 17.7457 0.330078 17.6998C2.57369 19.1324 5.1817 19.8902 7.8437 19.883C16.8836 19.883 21.8222 12.5209 21.8222 6.13578C21.8222 5.92643 21.8167 5.71708 21.8067 5.51272C22.7653 4.83087 23.5946 3.98353 24.2556 3.0105Z" fill="#274C5B"/>
</svg>
